<svg width="196" height="196" viewBox="0 0 196 196" fill="none" xmlns="http://www.w3.org/2000/svg">
<circle cx="98" cy="98" r="95" stroke="#EE7519" stroke-width="6"/>
<path d="M84.1463 127.609C83.6616 127.592 83.1852 127.478 82.7465 127.272C82.3078 127.066 81.916 126.774 81.5951 126.412L57.527 102.478C57.0682 102.182 56.6829 101.786 56.4002 101.32C56.1176 100.855 55.9451 100.331 55.8956 99.7897C55.8462 99.248 55.9211 98.7023 56.1148 98.1937C56.3085 97.6851 56.6159 97.2269 57.0137 96.8536C57.4115 96.4804 57.8894 96.202 58.4112 96.0393C58.9331 95.8766 59.4853 95.834 60.0262 95.9146C60.567 95.9952 61.0824 96.197 61.5334 96.5046C61.9844 96.8123 62.3592 97.2178 62.6295 97.6906L84.1463 118.944L134.545 68.9694C135.223 68.5319 136.03 68.3336 136.835 68.4063C137.641 68.479 138.398 68.8185 138.986 69.3703C139.575 69.9221 139.959 70.6544 140.079 71.4496C140.199 72.2449 140.047 73.0572 139.647 73.7562L86.6976 126.412C86.3767 126.774 85.9848 127.066 85.5462 127.272C85.1075 127.478 84.6311 127.592 84.1463 127.609Z" fill="#EE7519"/>
</svg>
